<svg viewBox="0 0 48 48" fill="none" xmlns="http://www.w3.org/2000/svg">
<circle cx="24" cy="24" r="23" stroke="#717171" stroke-width="2"/>
<g clip-path="url(#clip0_308_254)">
<path d="M34.5652 23.526C34.5798 23.7791 34.5896 24.0355 34.5896 24.2955C34.5896 27.1262 33.7742 29.5035 32.3894 31.2985L31.2908 30.4459C32.0702 29.4624 32.6096 28.3021 32.8523 27.0231L33.2781 24.7809H25.8894V23.526H34.5652Z" fill="#717171" stroke="#717171" stroke-width="3.77953"/>
<path d="M16.0469 29.3757C17.7544 31.962 20.6597 33.7253 24 33.7253C25.5547 33.7253 26.9725 33.4106 28.21 32.8396L29.4551 33.8054C27.9434 34.6332 26.1153 35.11 24 35.1101C20.2131 35.1101 16.8716 33.2032 14.8652 30.2957L16.0469 29.3757Z" fill="#717171" stroke="#717171" stroke-width="3.77953"/>
<path d="M14.582 22.2625C14.4767 22.8212 14.417 23.4012 14.417 23.9998C14.417 24.5986 14.4766 25.179 14.582 25.738C14.228 26.0135 13.8128 26.337 13.3975 26.6599C13.3475 26.6988 13.2969 26.7374 13.2471 26.7761C13.0152 25.8905 12.8896 24.9614 12.8896 23.9998C12.8897 23.0392 13.0147 22.111 13.2461 21.2263L14.582 22.2625Z" fill="#717171" stroke="#717171" stroke-width="3.77953"/>
<path d="M23.9999 16.1764C25.9145 16.1764 27.6162 16.8382 28.9753 18.1145L32.698 14.3919C30.4407 12.2883 27.5099 11 23.9999 11C18.9181 11 14.5336 13.9191 12.3945 18.1736L16.7199 21.53C17.748 18.4573 20.6199 16.1764 23.9999 16.1764Z" fill="#717171"/>
</g>
<defs>
<clipPath id="clip0_308_254">
<rect width="26" height="26" fill="white" transform="translate(11 11)"/>
</clipPath>
</defs>
</svg>
